<svg width="51" height="51" viewBox="0 0 51 51" fill="none" xmlns="http://www.w3.org/2000/svg">
<g clip-path="url(#clip0)">
<path d="M43.2764 0H10.9111C6.64546 0 3.1875 3.44371 3.1875 7.69174V40.1208C3.1875 44.3688 6.64546 47.8125 10.9111 47.8125H43.2764C47.542 47.8125 51 44.3688 51 40.1208V7.69174C51 3.44371 47.542 0 43.2764 0Z" fill="url(#paint0_linear)"/>
<path d="M26.3855 20.1993C27.6879 20.1993 28.6755 19.9172 29.3483 19.3529C30.0209 18.7887 30.3573 17.9564 30.3573 16.856C30.3573 15.7698 30.0209 14.9446 29.3483 14.3803C28.6755 13.8019 27.6879 13.5127 26.3855 13.5127H21.8125V20.1993H26.3855ZM26.6646 34.0169C28.3249 34.0169 29.5701 33.6713 30.4002 32.98C31.2447 32.2888 31.6669 31.2449 31.667 29.8483C31.6669 28.48 31.2518 27.4573 30.4217 26.7801C29.5916 26.0889 28.3392 25.7433 26.6646 25.7433H21.8125V34.0169H26.6646V34.0169ZM34.3506 22.6539C36.1254 23.1617 37.4994 24.0998 38.4727 25.4682C39.4459 26.8365 39.9326 28.5153 39.9326 30.5043C39.9326 33.5514 38.8877 35.8226 36.7981 37.3179C34.7084 38.8132 31.5309 39.5608 27.2657 39.5608H13.5469V7.96875H25.9561C30.4074 7.96878 33.6278 8.6318 35.6173 9.9578C37.6211 11.2839 38.623 13.4069 38.623 16.327C38.623 17.8647 38.258 19.1766 37.5281 20.2628C36.7981 21.3349 35.7389 22.1319 34.3506 22.6539" fill="white"/>
</g>
<defs>
<linearGradient id="paint0_linear" x1="5.94591" y1="45.3332" x2="47.8808" y2="2.48929" gradientUnits="userSpaceOnUse">
<stop stop-color="#070135"/>
<stop offset="1" stop-color="#612D50"/>
</linearGradient>
<clipPath id="clip0">
<rect width="51" height="51" fill="white"/>
</clipPath>
</defs>
</svg>
