<svg width="46" height="64" viewBox="0 0 46 64" fill="none" xmlns="http://www.w3.org/2000/svg">
<g clip-path="url(#clip0)">
<path d="M45.011 12.5775L40.9104 58.8524L22.4779 64L4.09627 58.8596L0 12.5775H45.011Z" fill="#264DE4"/>
<path d="M37.3998 55.9058L40.904 16.3618H22.5055V60.0654L37.3998 55.9058Z" fill="#2965F1"/>
<path d="M9.39062 33.5272L9.89566 39.2034H22.5055V33.5272H9.39062Z" fill="#EBEBEB"/>
<path d="M22.5055 22.0381H22.486H8.37582L8.88806 27.7145H22.5055V22.0381Z" fill="#EBEBEB"/>
<path d="M22.5055 54.1749V48.2691L22.4808 48.2758L16.2052 46.5688L15.804 42.0416H12.7545H10.1474L10.9369 50.9543L22.4796 54.1821L22.5055 54.1749Z" fill="#EBEBEB"/>
<path d="M29.4248 39.2034L28.7707 46.5651L22.486 48.2739V54.1794L34.0379 50.9543L34.1226 49.9953L35.4468 35.0514L35.5843 33.5271L36.6015 22.0381H22.486V27.7145H30.4262L29.9134 33.5271H22.486V39.2034H29.4248Z" fill="white"/>
</g>
<defs>
<clipPath id="clip0">
<rect width="45.011" height="64" fill="white"/>
</clipPath>
</defs>
</svg>
